<?xml version="1.0" encoding="utf-8"?>
<!-- Generator: Adobe Illustrator 25.1.0, SVG Export Plug-In . SVG Version: 6.00 Build 0)  -->
<svg version="1.1" xmlns="http://www.w3.org/2000/svg" xmlns:xlink="http://www.w3.org/1999/xlink" x="0px" y="0px"
	 viewBox="0 0 100 100" style="enable-background:new 0 0 100 100;" xml:space="preserve">
<style type="text/css">
	.st0{fill:#F3E4D9;}
	.st1{stroke:#000000;stroke-width:0.1941;stroke-miterlimit:10;}
	.st2{stroke:#000000;stroke-width:0.1373;stroke-miterlimit:10;}
	.st3{stroke:#000000;stroke-width:0.2745;stroke-miterlimit:10;}
	.st4{fill:none;}
	.st5{font-family:'Mistral';}
	.st6{font-size:15.7949px;}
	.st7{stroke:#000000;stroke-width:0.2849;stroke-miterlimit:10;}
	.st8{font-size:16.9142px;}
	.st9{fill:#3C2415;stroke:#000000;stroke-width:0.0573;stroke-miterlimit:10;}
	.st10{fill:#FFFFFF;}
	.st11{fill:#3C2415;}
	.st12{fill:#CF884E;}
	.st13{fill:#9D5728;}
	.st14{fill:#66331A;}
	.st15{font-size:8.3814px;}
</style>
<g id="background">
	<rect x="-0.25" y="0.15" class="st0" width="100.25" height="100.25"/>
</g>
<g id="Layer_1">
	<g>
		
			<ellipse transform="matrix(0.6611 -0.7503 0.7503 0.6611 -10.4928 84.0403)" class="st1" cx="87.79" cy="53.64" rx="0.23" ry="0.51"/>
		
			<ellipse transform="matrix(0.1273 -0.9919 0.9919 0.1273 -15.4996 69.8599)" class="st1" cx="31.95" cy="43.74" rx="0.51" ry="0.22"/>
		
			<ellipse transform="matrix(0.9397 -0.3421 0.3421 0.9397 -15.8934 29.0431)" class="st2" cx="74.38" cy="59.57" rx="0.2" ry="0.29"/>
		
			<ellipse transform="matrix(0.6377 -0.7703 0.7703 0.6377 -29.4962 33.9906)" class="st3" cx="21.38" cy="48.35" rx="0.19" ry="0.49"/>
		<g>
			<path d="M31.92,42.13c3.77,0.01,7.54,0.01,11.32-0.05c3.77-0.05,7.54-0.1,11.31-0.09c3.77,0.01,7.53,0.05,11.3,0.15l2.82,0.07
				l1.41,0.03c0.47,0,0.98,0.04,1.45,0.18c0.96,0.26,1.79,0.91,2.34,1.71c0.56,0.8,0.88,1.72,1.12,2.64l0-0.01
				c0.79,2.46,1.57,4.91,2.27,7.4c0.34,1.25,0.67,2.49,0.88,3.79c0.1,0.64,0.12,1.34-0.1,2c-0.2,0.67-0.8,1.24-1.49,1.41
				c-0.17,0.05-0.35,0.08-0.53,0.07l-0.48,0l-0.97,0l-1.93,0.01l-3.87,0.01l-7.73,0.01c-5.16-0.01-10.31-0.02-15.47-0.09
				c-2.58-0.03-5.16-0.03-7.73-0.1c-0.65-0.03-1.27,0.01-1.97-0.09c-0.67-0.09-1.35-0.28-1.95-0.61c-1.25-0.64-2.08-1.84-2.56-3.07
				l-0.01-0.02l0-0.01L28.36,46.6l0-0.01l0,0c-0.12-1.13-0.15-2.37,0.46-3.39c0.31-0.5,0.8-0.89,1.37-1.04
				C30.76,42.01,31.36,42.03,31.92,42.13z M31.91,42.21c-0.57-0.09-1.14-0.1-1.69,0.05c-0.55,0.14-1.01,0.52-1.29,1
				c-0.57,0.98-0.54,2.19-0.4,3.3l0-0.01l3.31,10.79l-0.01-0.03c0.5,1.14,1.31,2.13,2.39,2.67c0.53,0.27,1.13,0.42,1.73,0.49
				c0.58,0.07,1.26,0.03,1.9,0.03c2.58-0.02,5.15,0.02,7.73,0.03c5.15,0.01,10.31,0.09,15.46,0.16l7.73,0.14l3.87,0.08l1.93,0.04
				l0.97,0.02l0.48,0.01c0.14,0.01,0.28-0.01,0.42-0.05c0.56-0.13,1.04-0.54,1.23-1.11c0.21-0.56,0.22-1.2,0.13-1.82
				c-0.16-1.26-0.49-2.51-0.81-3.75c-0.66-2.49-1.43-4.95-2.27-7.38l0,0l0-0.01c-0.24-0.9-0.57-1.78-1.1-2.52
				c-0.53-0.74-1.3-1.29-2.17-1.5c-0.86-0.22-1.82-0.08-2.77-0.11l-2.83,0.02c-3.77,0.04-7.55,0.02-11.32-0.03
				c-3.77-0.05-7.54-0.15-11.31-0.26C39.45,42.31,35.68,42.26,31.91,42.21z"/>
		</g>
		<g>
			<path d="M28.48,44.26c-0.38,0.06-0.75,0.21-1.03,0.46c-0.29,0.25-0.46,0.6-0.55,0.96c-0.18,0.73-0.1,1.51,0.02,2.25l0,0.01
				l0,0.01c0.08,1.2,0.22,2.39,0.48,3.56c0.27,1.16,0.63,2.31,1.24,3.3l0.02,0.03l0.01,0.03c0.31,0.95,0.8,1.83,1.49,2.53
				c0.69,0.7,1.56,1.2,2.48,1.63l-0.36,0.34c-0.93-2.44-1.97-4.85-2.75-7.36c-0.39-1.25-0.75-2.52-0.97-3.82
				C28.35,46.89,28.25,45.55,28.48,44.26z M28.48,44.26c-0.12,1.31,0.04,2.61,0.33,3.88c0.28,1.27,0.67,2.51,1.1,3.74
				c0.89,2.45,1.89,4.86,2.87,7.29l0.25,0.61l-0.61-0.27c-0.95-0.42-1.89-0.97-2.63-1.75c-0.75-0.77-1.26-1.74-1.58-2.75l0.03,0.05
				c-0.65-1.08-1.01-2.28-1.23-3.47c-0.22-1.2-0.32-2.42-0.36-3.63l0,0.01c-0.09-0.77-0.13-1.58,0.11-2.34
				c0.12-0.37,0.32-0.74,0.64-0.98C27.71,44.41,28.1,44.29,28.48,44.26z"/>
		</g>
		<g>
			<path d="M26.4,48.1c-1.37-0.46-2.79-0.79-4.22-0.97c-0.71-0.1-1.43-0.16-2.15-0.18c-0.71-0.01-1.44,0.01-2.11,0.16l0.04-0.01
				c-0.41,0.19-0.76,0.46-1.02,0.83c-0.26,0.36-0.42,0.79-0.51,1.24l0-0.08l0.23,2.35l-0.01-0.06c0.33,0.9,0.75,1.77,1.34,2.51
				c0.57,0.75,1.32,1.36,2.16,1.8l-0.03-0.01c0.79,0.27,1.74,0.2,2.63,0.1c0.45-0.06,0.9-0.13,1.35-0.22l0.67-0.14l0.33-0.08
				l0.17-0.04l0.08-0.02l0.01,0c0,0,0.01-0.01-0.01,0.01c-0.18-0.13,0.05,0.66,0.11,0.39l0.02,0l0,0l-0.01,0l-0.04,0.01l-0.09-0.39
				l2.68-0.33l-0.12,0.18L26.4,48.1z M26.4,48.1l1.8,6.95l0.04,0.15l-0.16,0.03l-2.67,0.44l-0.09-0.39l0.04-0.01l0.03-0.01l0,0
				l0.01,0c0.06-0.27,0.29,0.52,0.11,0.39l-0.02,0.01l-0.01,0l-0.09,0.03l-0.17,0.05l-0.34,0.09l-0.68,0.17
				c-0.46,0.1-0.92,0.19-1.38,0.25c-0.47,0.06-0.94,0.11-1.42,0.11c-0.48,0-0.97-0.03-1.46-0.2l-0.01,0l-0.02-0.01
				c-0.9-0.46-1.72-1.12-2.35-1.92c-0.63-0.81-1.07-1.73-1.4-2.68l-0.01-0.03l0-0.03l-0.21-2.35l0-0.04l0.01-0.04
				c0.11-0.5,0.3-0.99,0.61-1.41c0.31-0.42,0.74-0.77,1.22-0.96l0.03-0.01l0.02,0c0.75-0.13,1.49-0.12,2.22-0.09
				c0.73,0.04,1.46,0.13,2.18,0.26C23.67,47.11,25.06,47.55,26.4,48.1z"/>
		</g>
		<g>
			<path class="st4" d="M54.07,70.25"/>
		</g>
		<g>
			<path class="st4" d="M68.41,66.31"/>
		</g>
		<g>
			<path d="M20.33,48.36c-0.38,0.05-0.74,0.04-1.08,0.11c-0.33,0.07-0.65,0.16-0.9,0.33c-0.52,0.32-0.77,0.95-0.69,1.72
				c-0.25-0.3-0.35-0.71-0.29-1.13c0.05-0.42,0.33-0.81,0.68-1.05C18.8,47.89,19.67,48.02,20.33,48.36z"/>
		</g>
		<g>
			<path d="M31.12,44.36c-0.04,1.84,0.13,3.63,0.44,5.41c0.31,1.78,0.75,3.53,1.4,5.25c-0.53-0.76-0.91-1.61-1.23-2.47
				c-0.32-0.87-0.54-1.77-0.71-2.68c-0.15-0.91-0.25-1.84-0.24-2.76C30.8,46.17,30.88,45.25,31.12,44.36z"/>
		</g>
		<g>
			<path d="M73.79,48.36c0.44,0.79,0.8,1.61,1.13,2.45c0.33,0.84,0.6,1.7,0.83,2.58c0.22,0.88,0.4,1.77,0.47,2.68
				c0.04,0.89,0.13,1.88-0.38,2.67c0.16-0.42,0.16-0.87,0.13-1.31c-0.02-0.44-0.09-0.88-0.16-1.31c-0.16-0.87-0.36-1.74-0.58-2.59
				C74.79,51.8,74.26,50.11,73.79,48.36z"/>
		</g>
		<g>
			<path d="M83.03,54.56c0.43-0.05,0.85,0.04,1.25,0.13c0.41,0.08,0.79,0.2,1.17,0.29c0.38,0.1,0.76,0.18,1.11,0.16
				c0.34,0,0.65-0.23,0.81-0.63c0.02,0.21-0.02,0.43-0.14,0.65c-0.14,0.19-0.36,0.35-0.59,0.4c-0.46,0.13-0.91,0.05-1.32-0.04
				C84.49,55.3,83.79,54.91,83.03,54.56z"/>
		</g>
		<g>
			<path d="M73.87,44.41c1.12,0.88,2.11,1.91,2.98,3.06c0.86,1.14,1.56,2.41,2.08,3.76c0.47,1.36,0.76,2.81,0.64,4.27
				c-0.11,1.44-0.65,2.87-1.6,3.93c0.77-1.2,1.15-2.58,1.18-3.96c0.03-1.38-0.24-2.76-0.74-4.06c-0.46-1.31-1.14-2.54-1.91-3.71
				C75.73,46.54,74.83,45.46,73.87,44.41z"/>
		</g>
		<g>
			<path d="M78.13,49.24c0.75-0.72,1.62-1.36,2.62-1.76c1-0.39,2.13-0.48,3.19-0.22c2.14,0.54,3.79,2.28,4.57,4.3
				c0.33,1.02,0.51,2.2,0.01,3.26c-0.48,1.1-1.72,1.6-2.78,1.6c-2.19,0.02-4.18-0.85-6.02-1.83l1.46,0.57
				c0.5,0.15,0.99,0.34,1.49,0.46c1,0.28,2.03,0.45,3.03,0.38c0.98-0.08,1.99-0.49,2.36-1.39c0.41-0.87,0.25-1.93-0.07-2.86
				c-0.68-1.88-2.23-3.5-4.16-4.07c-0.96-0.29-2.02-0.26-2.99,0.07C79.84,48.04,78.96,48.61,78.13,49.24z"/>
		</g>
		<text transform="matrix(0.7089 6.699011e-03 0.1799 0.9837 41.3534 55.2454)" class="st5 st6">Bakery</text>
	</g>
	<g>
		<g>
			<path d="M22.26,31.08c0.61,0.29,1.07,0.82,1.46,1.35c0.4,0.52,0.71,1.13,1.12,1.49c0.38,0.41,0.93,0.21,1.46-0.11
				c0.54-0.32,1.02-0.76,1.55-1.15c-0.18,0.28-0.38,0.54-0.58,0.81c-0.24,0.23-0.44,0.5-0.72,0.71c-0.26,0.22-0.57,0.42-0.96,0.5
				c-0.19,0.06-0.4,0.02-0.61-0.02c-0.18-0.08-0.39-0.16-0.52-0.3c-0.56-0.52-0.81-1.13-1.12-1.69
				C23.05,32.1,22.72,31.56,22.26,31.08z"/>
		</g>
		<g>
			<path d="M24.47,30.27c0.41,0.2,0.73,0.42,1.02,0.71c0.14,0.15,0.28,0.31,0.38,0.49c0.11,0.18,0.2,0.38,0.24,0.61
				c-0.22-0.09-0.39-0.2-0.56-0.32c-0.17-0.11-0.32-0.25-0.47-0.39c-0.14-0.15-0.28-0.3-0.38-0.49C24.6,30.7,24.49,30.5,24.47,30.27
				z"/>
		</g>
		<g>
			<path d="M23.63,27.25c-0.67,1.89-1.62,3.76-3.22,5.13c-0.81,0.65-1.89,1.08-2.98,0.95c-1.08-0.11-2.05-0.67-2.82-1.36
				c-0.77-0.71-1.37-1.58-1.83-2.51c-0.44-0.93-0.79-1.94-0.78-3c-0.01-0.53,0.09-1.06,0.3-1.56c0.25-0.48,0.65-0.89,1.15-1.1
				c1.02-0.36,2.08-0.11,3.02,0.21c-0.97-0.21-2.03-0.37-2.9,0.04c-0.43,0.21-0.74,0.57-0.93,0.99c-0.16,0.44-0.23,0.92-0.19,1.4
				c0.15,1.92,1.14,3.8,2.55,5.1c0.7,0.65,1.56,1.15,2.5,1.27c0.94,0.14,1.87-0.23,2.66-0.78C21.69,30.83,22.75,29.04,23.63,27.25z"
				/>
		</g>
		<g>
			<path d="M16.47,24.01c-0.86-0.19-1.7-0.57-2.37-1.19c-0.68-0.62-1.07-1.52-1.17-2.44c-0.19-1.87,0.7-3.64,1.88-4.99
				c1.22-1.33,2.88-2.33,4.71-2.52c0.91-0.1,1.83,0.02,2.68,0.31c0.84,0.31,1.62,0.78,2.29,1.35c-1.47-0.96-3.21-1.52-4.91-1.23
				c-1.68,0.26-3.22,1.19-4.34,2.47c-1.14,1.24-1.95,2.89-1.87,4.58c0.04,0.83,0.34,1.66,0.94,2.28
				C14.86,23.27,15.65,23.7,16.47,24.01z"/>
		</g>
		<g>
			<path d="M24.47,17.7c0.01-0.81,0.16-1.64,0.58-2.37c0.42-0.74,1.19-1.27,2.03-1.45c0.84-0.21,1.72-0.08,2.51,0.2
				c0.8,0.28,1.54,0.71,2.17,1.26c1.25,1.11,2.11,2.8,1.92,4.51c-0.09,0.84-0.4,1.64-0.82,2.35c-0.44,0.71-1.02,1.29-1.62,1.83
				c1.06-1.2,1.95-2.64,2.01-4.21c0.08-1.55-0.68-3.05-1.86-4.05c-1.14-1.02-2.71-1.71-4.23-1.46c-0.75,0.12-1.45,0.53-1.88,1.18
				C24.82,16.11,24.6,16.9,24.47,17.7z"/>
		</g>
		<g>
			<path d="M27.86,32.66c0.25-0.48,0.72-0.79,1.13-1.09c0.42-0.3,0.86-0.56,1.28-0.84c0.43-0.27,0.84-0.55,1.26-0.83
				c0.41-0.29,0.8-0.6,1.22-0.93c-0.23,0.47-0.57,0.89-0.94,1.26c-0.37,0.38-0.8,0.69-1.23,0.98c-0.44,0.28-0.9,0.53-1.36,0.74
				C28.75,32.18,28.27,32.35,27.86,32.66z"/>
		</g>
		<g>
			<path d="M32.74,28.98c0.17-0.22,0.32-0.4,0.4-0.59c0.07-0.19,0.11-0.37,0.09-0.57c-0.01-0.2-0.07-0.4-0.14-0.61
				c-0.08-0.21-0.19-0.41-0.35-0.64c0.28,0.02,0.53,0.19,0.72,0.4c0.19,0.21,0.31,0.5,0.34,0.8c0.02,0.3-0.08,0.64-0.3,0.86
				C33.29,28.86,33.01,28.97,32.74,28.98z"/>
		</g>
		<g>
			<path d="M32.74,26.57c-0.28-0.04-0.5-0.23-0.69-0.42c-0.19-0.19-0.32-0.41-0.45-0.64c-0.11-0.23-0.21-0.47-0.27-0.72
				c-0.06-0.25-0.11-0.5-0.09-0.78c0.21,0.18,0.35,0.39,0.49,0.6c0.15,0.2,0.26,0.42,0.37,0.64c0.1,0.22,0.21,0.43,0.3,0.65
				C32.51,26.13,32.6,26.34,32.74,26.57z"/>
		</g>
		<g>
			<path d="M13.78,27.77c0.12,0.36,0.21,0.71,0.33,1.03c0.13,0.32,0.25,0.64,0.41,0.93c0.32,0.59,0.72,1.09,1.44,1.34
				c-0.37,0.12-0.8,0.02-1.14-0.2c-0.35-0.21-0.61-0.53-0.8-0.87c-0.18-0.35-0.31-0.72-0.34-1.11
				C13.65,28.52,13.66,28.14,13.78,27.77z"/>
		</g>
		<g>
			<path d="M31.24,24.01c-0.26,0.07-0.49,0.18-0.72,0.32c-0.23,0.12-0.45,0.25-0.67,0.39l-1.32,0.85l-1.32,0.85
				c-0.45,0.28-0.89,0.57-1.37,0.83c0.32-0.44,0.71-0.82,1.1-1.18c0.4-0.36,0.83-0.68,1.28-0.98c0.45-0.29,0.92-0.56,1.43-0.76
				C30.15,24.15,30.69,23.93,31.24,24.01z"/>
		</g>
		<g>
			<path d="M16.73,15.46c-0.71,0.64-1.06,1.45-1.35,2.3c-0.15,0.42-0.27,0.87-0.4,1.31c-0.13,0.44-0.25,0.9-0.44,1.34
				c-0.04-0.48-0.04-0.95,0.01-1.43c0.04-0.48,0.14-0.95,0.29-1.41c0.16-0.46,0.37-0.91,0.69-1.29
				C15.85,15.9,16.26,15.57,16.73,15.46z"/>
		</g>
		<g>
			<path d="M26.88,28.4c0.36,0.28,0.67,0.48,0.98,0.77c0.14,0.15,0.29,0.3,0.4,0.49c0.12,0.18,0.23,0.37,0.28,0.61
				c-0.23-0.08-0.41-0.18-0.59-0.3c-0.18-0.11-0.34-0.25-0.49-0.39c-0.15-0.15-0.29-0.31-0.4-0.51
				C26.95,28.87,26.85,28.64,26.88,28.4z"/>
		</g>
		<g>
			<path d="M29.26,26.57c0.18,0.15,0.32,0.29,0.47,0.43c0.15,0.13,0.27,0.28,0.41,0.42c0.12,0.15,0.26,0.29,0.37,0.45
				c0.12,0.16,0.25,0.32,0.37,0.52c-0.24,0.01-0.46-0.08-0.65-0.18c-0.2-0.1-0.37-0.25-0.52-0.41c-0.14-0.17-0.27-0.35-0.35-0.56
				C29.28,27.03,29.22,26.81,29.26,26.57z"/>
		</g>
		<g>
			<path d="M26.88,15.46c0.25-0.35,0.74-0.43,1.15-0.43c0.43,0,0.84,0.12,1.22,0.3c0.75,0.38,1.35,1.02,1.63,1.79
				c-0.33-0.24-0.61-0.5-0.93-0.71c-0.31-0.21-0.62-0.42-0.95-0.57c-0.32-0.16-0.67-0.28-1.02-0.38c-0.18-0.05-0.36-0.07-0.54-0.08
				C27.25,15.36,27.07,15.38,26.88,15.46z"/>
		</g>
		<ellipse class="st7" cx="18.04" cy="14.81" rx="0.21" ry="0.24"/>
		<ellipse class="st7" cx="31.55" cy="18.18" rx="0.21" ry="0.24"/>
		<ellipse class="st7" cx="13.75" cy="26.33" rx="0.21" ry="0.24"/>
	</g>
	<g>
		<text transform="matrix(0.8032 2.104463e-03 0.3455 0.9384 40.9298 38.5819)" class="st5 st8">C    kies</text>
		<g>
			<path class="st9" d="M49.65,31.74c-0.13,0.12-0.14,0.22-0.1,0.32c0.07,0.02,0.16,0,0.28-0.05
				C50.11,31.69,49.99,31.65,49.65,31.74z"/>
			<path class="st9" d="M50.58,31.26c-0.07,0.17-0.08,0.25-0.04,0.27c0.19-0.04,0.35-0.1,0.38-0.32c-0.03-0.07-0.07-0.1-0.11-0.09
				C50.72,31.08,50.65,31.14,50.58,31.26z"/>
			<g>
				<path class="st10" d="M53.38,30.82c-0.1-0.05-0.5-0.13-0.92-0.09"/>
				<path class="st11" d="M53.38,30.82c-0.08,0-0.16,0-0.23-0.02c-0.07-0.03-0.15-0.06-0.23-0.04c-0.16,0.02-0.3,0.02-0.46-0.03
					l0-0.01c0.15-0.08,0.32-0.08,0.47-0.02c0.08,0.03,0.16,0.02,0.24,0.02c0.08,0,0.16,0.04,0.22,0.1L53.38,30.82z"/>
			</g>
			<g>
				<path class="st10" d="M52.05,30.49c-0.02-0.11-0.41-0.08-0.86,0.08"/>
				<path class="st11" d="M52.05,30.49c-0.06-0.04-0.12-0.01-0.2-0.02c-0.07-0.01-0.15-0.02-0.22,0.01
					c-0.14,0.06-0.28,0.1-0.44,0.09l0-0.01c0.12-0.11,0.28-0.15,0.43-0.14c0.08,0.01,0.15-0.02,0.23-0.04c0.07-0.01,0.2,0,0.21,0.11
					L52.05,30.49z"/>
			</g>
			<g>
				<path class="st10" d="M52.12,30.84c0.06,0.3,0.19,0.51,0.29,0.47"/>
				<path class="st11" d="M52.13,30.84c0.04,0.04,0.07,0.08,0.07,0.13c0,0.05,0,0.1,0.04,0.14c0.08,0.07,0.1,0.15,0.17,0.2l0,0.01
					c-0.05,0.05-0.14,0.01-0.17-0.03c-0.03-0.05-0.06-0.09-0.06-0.15c0-0.06-0.04-0.09-0.07-0.14c-0.03-0.05-0.02-0.1,0-0.16
					L52.13,30.84z"/>
			</g>
			<g>
				<g id="cookie_top">
					<path class="st10" d="M52.25,30.49c-0.7-0.04-1.6,0.36-2.67,1.13c-0.52,0.02-0.96,0.5-1.37,1.21
						c-0.38,0.66-0.79,1.27-1.25,1.82c-0.5,0.84-0.67,1.53-0.62,2.11c0.44,1.01,1.28,1.22,2.29,1.06c1.62-0.12,2.99-0.88,4.05-2.4
						c0.94-1.22,1.52-2.32,1.3-3.12C54.18,31.07,53.34,30.6,52.25,30.49z"/>
					<path class="st11" d="M52.25,30.5c-0.49-0.01-0.97,0.16-1.4,0.38c-0.44,0.22-0.85,0.49-1.24,0.78l-0.01,0.01l-0.01,0
						c-0.34,0.02-0.62,0.24-0.84,0.49c-0.22,0.25-0.4,0.55-0.57,0.84c-0.35,0.59-0.74,1.16-1.18,1.69l0,0
						c-0.38,0.63-0.69,1.35-0.63,2.1l0-0.01c0.18,0.42,0.5,0.79,0.92,0.95c0.43,0.17,0.9,0.15,1.35,0.08l0,0
						c1.39-0.09,2.7-0.78,3.59-1.84c0.43-0.54,0.86-1.1,1.21-1.69c0.33-0.59,0.68-1.26,0.52-1.93l0-0.01l0-0.01
						c0.09-0.46,0.01-0.99-0.36-1.31C53.22,30.67,52.72,30.55,52.25,30.5z M52.25,30.48c0.48,0.05,0.98,0.16,1.36,0.48
						c0.39,0.32,0.49,0.88,0.41,1.36l0-0.02c0.18,0.72-0.16,1.42-0.49,2.01c-0.36,0.6-0.78,1.16-1.22,1.7
						c-0.46,0.53-1.01,0.99-1.64,1.31c-0.63,0.32-1.33,0.49-2.02,0.53l0,0c-0.46,0.07-0.94,0.08-1.38-0.1
						c-0.44-0.18-0.76-0.56-0.94-0.99l0,0l0,0c-0.07-0.76,0.23-1.49,0.61-2.13l0,0l0,0c0.43-0.53,0.81-1.1,1.15-1.69
						c0.17-0.3,0.36-0.59,0.59-0.85c0.23-0.25,0.54-0.49,0.9-0.5l-0.02,0.01c0.4-0.28,0.82-0.55,1.27-0.76
						C51.27,30.63,51.75,30.46,52.25,30.48z"/>
				</g>
				<g id="cookie_bottom">
					<path class="st10" d="M54.11,31.67c1.38-0.94,2.58-1.16,3.64-0.8c0.35-0.01,0.59,0.08,0.76,0.26c0.46-0.2,0.75-0.14,0.79,0.26
						c0.34,0.28,0.46,0.62,0.22,1.08c0.09,0.7-0.62,1.51-1.7,2.37c-0.37,0.53-1.21,0.89-2.2,1.18c-1.31,0.47-2.37,0.39-3.3,0.06
						L54.11,31.67z"/>
					<path class="st11" d="M54.1,31.67c0.53-0.37,1.1-0.7,1.73-0.87c0.62-0.18,1.31-0.18,1.93,0.03l-0.02,0
						c0.28-0.02,0.6,0.05,0.79,0.28l-0.05-0.01c0.16-0.06,0.33-0.13,0.52-0.1c0.21,0.02,0.32,0.23,0.33,0.41l-0.01-0.03
						c0.16,0.13,0.3,0.31,0.34,0.52c0.04,0.21-0.02,0.43-0.12,0.61l0-0.02c0.05,0.54-0.29,0.98-0.61,1.36
						c-0.33,0.38-0.71,0.72-1.11,1.04l0.01-0.01c-0.3,0.41-0.76,0.66-1.21,0.86c-0.46,0.2-0.93,0.34-1.4,0.49
						c-0.95,0.28-2,0.28-2.94-0.06l-0.06-0.02l0.02-0.05L54.1,31.67z M54.11,31.67l-1.76,4.44l-0.03-0.07
						c0.92,0.33,1.94,0.34,2.87,0.07c0.47-0.15,0.94-0.28,1.4-0.47c0.45-0.19,0.9-0.42,1.19-0.81l0,0l0,0
						c0.39-0.31,0.78-0.64,1.11-1.01c0.32-0.37,0.63-0.83,0.58-1.33l0-0.01l0-0.01c0.09-0.18,0.15-0.38,0.1-0.57
						c-0.04-0.19-0.17-0.35-0.32-0.47l-0.01-0.01l0-0.02c-0.01-0.16-0.1-0.32-0.26-0.33c-0.16-0.02-0.32,0.04-0.47,0.11l-0.03,0.01
						l-0.02-0.03c-0.17-0.2-0.46-0.25-0.72-0.24l-0.01,0l-0.01,0c-0.6-0.21-1.26-0.22-1.88-0.06
						C55.23,31.03,54.65,31.33,54.11,31.67z"/>
				</g>
				<path class="st12" d="M52.87,35.64l-0.08,0.23l0.68-0.1l0.05-0.41l0.24-0.55l0.73,0.02l-0.51,0.19
					c0.06,0.31,0.67,0.23,1.67-0.15l0.15,0.03c-0.95,0.56-1.05,0.75-0.2,0.55c-0.36,0.71,1.72-0.54,0.85-0.48
					c0.02-0.11-0.08-0.15-0.33-0.14l0.35-0.23l1.02,0.03l0.02-0.11l0.1,0.03c0.34-0.26,0.66-0.51,0.66-0.66l0.02-0.28l0.17-0.06
					c-0.19-0.22-0.39-0.18-0.59,0.12c-0.15,0.28-0.47,0.38-0.83,0.44l-0.1,0.09l-0.13-0.05l0.24-0.37c0.55-0.25,0.94-0.56,1.07-0.97
					c0.08,0.17,0.08,0.38,0.04,0.61l0.41-0.1c0.58,0.09,0.8-0.06,0.66-0.46c0.17-0.21,0.11-0.28-0.13-0.23
					c-0.17-0.04-0.32,0-0.43,0.15c-0.08-0.26-0.17-0.49-0.38-0.57c-0.43-0.44-0.58-0.33-0.45,0.31l-0.67,0.88
					c0.06-0.22-0.03-0.27-0.29-0.16c-0.09-0.19-0.49-0.02-0.38,0.17c-0.46,0.21-0.8,0.48-1.04,0.81L54,34.27L52.87,35.64z"/>
				<path class="st12" d="M54.81,32.97l0.16-0.06c-0.15,0.21-0.25,0.39-0.16,0.48l-0.18,0.3l0.42-0.02l1.4-0.53
					c0.63-0.4-0.57-0.68-0.46-0.2l-0.26,0.15l0.23-0.33c0.48-0.44,0.63-0.67,0.1-0.46c0.49-0.48,0.48-0.64-0.18-0.38l0.38-0.29
					l0.12-0.09l0.03,0.15l0.32-0.02l0.74-0.14l0.14-0.05l0.47,0.07l0.1-0.15c-1.33-0.86-3.05-0.25-2.79-0.09
					c0,0-0.82,0.41-1.02,0.67l0.02,1.76l0.16,0.02l0.17-0.42L54.81,32.97z"/>
				<path class="st12" d="M54.64,35.68c-0.19,0.09-0.34,0.23-0.47,0.4L54.8,36C55.26,35.76,55.12,35.68,54.64,35.68z"/>
				<path class="st12" d="M58.65,31.58c0.12-0.19,0.25-0.27,0.4-0.18c0.12,0.11,0.12,0.27-0.02,0.47
					C58.79,31.89,58.68,31.78,58.65,31.58z"/>
				<path class="st12" d="M57.55,32.24c0.37-0.68,0.23-0.73-0.41-0.17c-0.17,0.22-0.27,0.41-0.24,0.54
					C57.18,32.56,57.42,32.46,57.55,32.24z"/>
				<path class="st12" d="M47.54,34.92l0.16,0.06l0.61-0.47l0.53-0.36l-0.63,0.96l0.44,0.25c-0.13,1.11-0.29,1.29-0.47,0.57
					l-0.13,0.44l0.24-0.03l0.31-0.19l0.39,0.02l0.09,0.25l0.36,0.41l0.24,0.4c-0.23,0.43-0.56,0.43-0.93,0.24
					c-1.27,0.49-1.72,0.25-1.57-0.52l-0.05-0.05c-0.22,0.06-0.3-0.1-0.29-0.39l-0.1-0.5l0.14-0.41c-0.01-0.52,0.09-0.89,0.44-0.97
					l0.2-0.07C48.1,34.21,48.2,34.74,47.54,34.92z"/>
				<path class="st12" d="M49.12,34.91c-0.28-0.55-0.07-0.59,0.44-0.3l0,0.3l0,0.06c0.1-0.12,0.2-0.21,0.28-0.2l0.12-0.33l0.52-0.76
					l-0.27,0.02l0.03-0.61l0.33-0.56l0.51-1.14c0.22-0.74,0.31-0.48,0.36,0.19c0.26-0.27,0.51-0.51,0.63-0.5
					c0.69-0.19,0.49,0.67-0.02,0.36c-0.31,0.61-0.68,1.06-1.11,1.34l-0.13,0.24c0.16,0.96,0.03,1.7-0.74,1.97l-0.1,0.08l0.07,0.43
					l1.43-1.74c0.4-0.51,0.5-0.47,0.19,0.32c0.25-0.19,0.26-0.04,0.17,0.26l-0.19,0.36l0.73-0.89c-0.26-0.33-0.19-1.1,0.27-1.12
					l0.05,0.22c0.06-0.07,0.13-0.07,0.21,0.01l0.49-1.23c0-0.57,0.13-0.48,0.33-0.06c0.21,0.28,0.19,0.8,0.07,1.45
					c-0.06,0.55-0.24,0.95-0.53,1.22l-1.38,1.8c-0.61,0.6-1.18,1.12-1.46,0.93l0.15-0.15l-0.21,0.06l-0.2,0.03l-0.29-0.59
					c0,0-0.02-0.23,0-0.25s-0.17,0.03-0.17,0.03l-0.23-0.8C49.11,35.35,48.94,35.23,49.12,34.91z"/>
				<path class="st12" d="M48.7,33.24c-0.43,0.23-0.55,0.13-0.39-0.27c0.26-0.38,0.51-0.64,0.7-0.67c0.36-0.33,0.49-0.38,0.39-0.1
					c0.26-0.09,0.38-0.03,0.26,0.29l0.39-0.45c-0.1-0.22-0.07-0.39,0.25-0.48l0.38,0.03l-0.08,0.27l-0.31,0.55l-1.08,1.05l0.03-0.29
					c-0.23,0.26-0.5,0.42-0.79,0.46C48.39,33.54,48.48,33.4,48.7,33.24z"/>
				<path class="st12" d="M52.79,31.27c0.08-0.25,0.21-0.35,0.46-0.16c0.09,0.17,0.02,0.28-0.1,0.37
					C52.91,31.55,52.81,31.45,52.79,31.27z"/>
				<path class="st13" d="M52.85,35.77c-0.2-0.03-0.32,0.06-0.38,0.21l0.3,0.16l1.68-0.71c-0.24-0.17-0.67-0.12-1.22,0.09l0.1,0.3
					L52.85,35.77z"/>
				<path class="st13" d="M57.46,34.74l-0.44,0.35c-0.2-0.02-0.35-0.12-0.45-0.28c-0.12-0.33,0.08-0.45,0.08-0.45l0.46,0.1
					C57.37,34.44,57.51,34.51,57.46,34.74z"/>
				<path class="st13" d="M55.3,33.35c-0.3,0.16-0.37,0.3-0.31,0.44c0.18,0.1,0.35,0.19,0.49,0.21l0.65-1.1L55.3,33.35z"/>
				<path class="st13" d="M57.21,31.9c0.16-0.07,0.37-0.14-0.02-0.26c-0.14,0.03-0.34,0.13-0.55,0.24L57.21,31.9z"/>
				<path class="st13" d="M59.17,32.9c-0.09-0.28-0.29-0.22-0.6,0.15c-0.11,0.3-0.12,0.61-0.1,0.92
					C58.74,33.89,58.95,33.37,59.17,32.9z"/>
				<path class="st13" d="M57.92,33.93c-0.23,0.06-0.41,0.16-0.48,0.31c-0.02,0.15,0.03,0.24,0.2,0.25
					C58.05,34.29,58.09,34.1,57.92,33.93z"/>
				<path class="st13" d="M55.67,35.37c0.12,0.14,0.17,0.12,0.15-0.05c0.01-0.09-0.05-0.17-0.13-0.26
					C55.64,35.18,55.62,35.29,55.67,35.37z"/>
				<path class="st13" d="M53.92,34.14l-0.31,0.11l-0.87,1.38l0.56-0.24c0.24-0.1,0.44-0.22,0.35-0.45l0.07-0.23
					c0.61-0.14,0.8-0.29,0.17-0.46L53.92,34.14z"/>
				<path class="st13" d="M54.18,31.89l0.17-0.06l0.26,0.69c0.19,0.34-0.08,0.43-0.21,1.18l-0.31,0.34c-0.14-0.52-0.1-1.11,0.2-1.79
					L54.18,31.89z"/>
				<path class="st13" d="M49.09,37.06c-0.3,0.06-0.41,0.18-0.33,0.37c0.08,0.12,0.22,0.13,0.45-0.05
					C49.37,37.2,49.34,37.09,49.09,37.06z"/>
				<path class="st13" d="M48.33,37.32c0.38,0.07,0.22,0.22-0.28,0.41c-0.37-0.02-0.74-0.04-0.83-0.33
					c0.01-0.16,0.07-0.21,0.17-0.16C47.64,37.13,47.97,37.2,48.33,37.32z"/>
				<path class="st13" d="M47.71,36.06c-0.27,0.18-0.42,0.16-0.35-0.23c0.14-0.17,0.29-0.3,0.41-0.23
					C47.91,35.69,47.86,35.85,47.71,36.06z"/>
				<path class="st13" d="M48.23,35.47c0.03,0.25,0.14,0.28,0.36-0.02c0.21-0.55,0.34-1.01,0.29-1.26
					C48.53,34.3,48.35,34.81,48.23,35.47z"/>
				<path class="st13" d="M49.79,32.82c-0.4,0.37-0.61,0.64-0.52,0.77l0.28-0.1l0.71-0.42c0.49-0.26,0.37-0.34,0.07-0.37
					C50.3,32.23,50.09,32.38,49.79,32.82z"/>
				<polygon class="st13" points="49.34,35.54 49.17,35.5 48.77,35.6 48.78,35.93 				"/>
				<path class="st13" d="M51.01,36.39c0.16,0.36-0.12,0.37-0.62,0.22c-0.19-0.18-0.09-0.44,0.18-0.75l0.65-0.53l0.39-0.02
					l0.93-1.14c-0.04-0.42,0.12-0.9,0.53-1.46l0.52-0.77c0.38,0.39,0.33,0.85-0.01,1.36c-0.04,0.3-0.16,0.57-0.33,0.82l0.01,0.15
					l-0.24,0.22l-0.27,0.1l-0.08,0l-0.13,0.26l0.07,0.36l-0.45,0.54c-0.34,0.33-0.62,0.55-0.62,0.26L51.01,36.39z"/>
				<path class="st14" d="M55.93,31.29c-0.41,0.29-0.39,0.42,0.08,0.39c0.3-0.06,0.56-0.18,0.75-0.39
					C56.68,31.09,56.41,31.09,55.93,31.29z"/>
				<path class="st14" d="M54.3,32.5c-0.17,0.45-0.34,0.9-0.29,1.22c-0.14,0.12-0.2,0.24-0.23,0.36c0.15-0.04,0.3-0.12,0.47-0.38
					C54.5,33.27,54.46,32.88,54.3,32.5z"/>
				<path class="st14" d="M53.69,34.22c-0.31,0.58-0.63,1.11-0.98,1.52c0.25-0.03,0.49-0.24,0.71-0.61
					C53.71,34.67,53.79,34.37,53.69,34.22z"/>
				<path class="st14" d="M53.17,35.91l0.1-0.15c0.33-0.16,0.61-0.22,0.83-0.15l0.44,0.12c-0.04,0.1-0.1,0.2-0.24,0.27
					c-0.23,0.13-0.5,0.21-0.79,0.25c-0.17-0.04-0.45-0.03-0.75,0.01c-0.11-0.04-0.15-0.11-0.14-0.21
					C52.82,36.05,53.01,36.01,53.17,35.91z"/>
				<path class="st14" d="M56.39,34.09L56.37,34c-0.1,0.03-0.18,0.08-0.11,0.2C56.43,34.23,56.46,34.19,56.39,34.09z"/>
				<path class="st14" d="M56.74,33.77c0.08-0.09,0.1-0.17,0.06-0.22c-0.1,0.01-0.23,0.1-0.18,0.16
					C56.67,33.78,56.74,33.77,56.74,33.77z"/>
				<path class="st14" d="M56.82,34.39c-0.18,0.01-0.22,0.18-0.18,0.42c0.13,0.13,0.29,0.19,0.48,0.15c0.17-0.19,0.17-0.36-0.03-0.5
					L56.82,34.39z"/>
				<path class="st14" d="M48.96,35.64c0.02-0.1,0.07-0.17,0.21-0.14c0.16,0.03,0.24,0.11,0.26,0.24l0.03,0.38
					c0.13,0,0.18,0.1,0.2,0.22c0.31,0.31,0.63,0.62,0.57,0.84c-0.12,0.07-0.22,0.1-0.3,0.01c-0.33,0.02-0.54-0.18-0.7-0.49
					c-0.07-0.2-0.19-0.37-0.37-0.5C48.8,36.01,48.88,35.77,48.96,35.64z"/>
				<path class="st9" d="M49.35,34.05c0.09-0.15,0.17-0.3,0.36-0.42c0.17-0.17,0.29-0.2,0.35-0.08c-0.2,0.24-0.4,0.44-0.58,0.45
					l-0.15,0.16c0.02,0.1,0.06,0.19,0.19,0.22c0.21,0.02,0.41-0.09,0.59-0.27c0.14-0.19,0.24-0.38,0.25-0.58
					c-0.02-0.2-0.14-0.28-0.35-0.28c-0.16,0.03-0.42,0.29-0.69,0.57l-0.07,0.22L49.35,34.05z"/>
				<path class="st9" d="M51.12,33.21c0.28-0.17,0.53-0.34,0.64-0.51c0.15-0.11,0.3-0.28,0.44-0.49l0.03,0.14
					c0.1-0.08,0.18-0.18,0.21-0.33c0.11-0.04,0.12,0.03,0.04,0.2c-0.11,0.28-0.26,0.53-0.5,0.74c-0.19,0.17-0.34,0.24-0.46,0.25
					C51.27,33.27,51.17,33.25,51.12,33.21z"/>
				<path class="st9" d="M52.61,31.76c0.1,0.03,0.23,0.01,0.43-0.08l0.24-0.15c-0.13-0.12-0.26-0.09-0.39,0
					C52.69,31.64,52.63,31.71,52.61,31.76z"/>
				<path class="st9" d="M48.11,33.74c-0.08,0.04-0.22,0.34-0.16,0.32c0.02,0.11,0.08,0.1,0.17-0.02c0.11-0.1,0.14-0.18,0.15-0.27
					C48.3,33.64,48.26,33.61,48.11,33.74z"/>
				<path class="st9" d="M48.56,33.87c0.16-0.18,0.27-0.23,0.32-0.11c-0.05,0.17-0.21,0.31-0.4,0.44
					C48.41,34.12,48.43,34.01,48.56,33.87z"/>
				<path class="st9" d="M48.94,35.78c0.15-0.02,0.26,0,0.31,0.11l0.11,0.26c-0.11,0.01-0.24-0.03-0.37-0.13
					C48.91,35.99,48.91,35.9,48.94,35.78z"/>
				<path class="st9" d="M49.34,36.29c0.11-0.09,0.14,0.22,0.18,0.2c0.13-0.08,0.17,0.14,0.17,0.14c0.24,0.11,0.34,0.21,0.22,0.31
					c0.14,0.04-0.14,0.09-0.1,0.1c0.13,0.03-0.2-0.04-0.23-0.11c-0.16-0.05-0.27-0.14-0.25-0.29
					C49.14,36.59,49.13,36.48,49.34,36.29z"/>
				<path class="st9" d="M48.04,36.91c0.21-0.05,0.41-0.09,0.49-0.03c0.11,0.05,0.14,0.1-0.01,0.16l-0.1,0.03
					c-0.07,0.15-0.18,0.21-0.3,0.22l-0.18-0.14l0.15-0.09C48.16,37.02,48.11,36.96,48.04,36.91z"/>
				<path class="st9" d="M52.91,31.93c-0.08,0.15-0.13,0.31-0.13,0.49c0.09,0.1,0.19,0.13,0.29,0.11c0.23-0.07,0.38-0.21,0.42-0.44
					c0.01-0.17-0.06-0.26-0.19-0.3l-0.09,0.4c-0.07,0.1-0.16,0.15-0.27,0.18C53.03,32.22,52.98,32.08,52.91,31.93z"/>
				<path class="st9" d="M47.13,35.61l0.07-0.46c-0.16,0.02-0.26,0.2-0.33,0.47l0.01,0.39c-0.15,0-0.19,0.13-0.18,0.33
					c0.17,0.24,0.29,0.33,0.25-0.09l0.1-0.03l0.06,0.05c0.05,0.16,0.17,0.02,0.13-0.04c-0.07-0.1,0.11-0.36,0.08-0.52
					C47.43,35.24,47.4,35.12,47.13,35.61z"/>
				<path class="st9" d="M55.84,33.12c0.04,0.03,0,0.1-0.15,0.24c-0.22,0.06-0.29,0.04-0.27-0.03c0.13-0.13,0.48-0.25,0.8-0.37
					c0.18,0.07,0.21,0.18,0.07,0.35c-0.19,0.14-0.39,0.24-0.57,0.25c-0.17-0.03-0.12-0.11,0.05-0.22c0.14-0.03,0.27-0.1,0.36-0.2
					L55.84,33.12z"/>
				<path class="st9" d="M57.54,32.34c-0.06,0.2-0.15,0.36-0.26,0.46c-0.21,0.11-0.24,0.18-0.09,0.21c0.11,0.07,0.21,0.08,0.3,0.05
					C57.83,32.71,57.81,32.49,57.54,32.34z"/>
				<path class="st9" d="M57.24,31.74c-0.2,0.02-0.4,0.09-0.59,0.2c0.11,0.21,0.24,0.22,0.4,0.12
					C57.19,31.96,57.26,31.85,57.24,31.74z"/>
				<path class="st9" d="M58.17,31.42c-0.23,0.07-0.29,0.17-0.27,0.28c0.02,0.17,0.15,0.21,0.35,0.15c0.3-0.02,0.41-0.09,0.33-0.2
					C58.6,31.43,58.47,31.35,58.17,31.42z"/>
				<path class="st9" d="M59.07,31.95c-0.32-0.05-0.42,0.09-0.4,0.33c0.03,0.14,0.09,0.23,0.28,0.21
					C59.24,32.79,59.5,32.17,59.07,31.95z"/>
				<path class="st9" d="M57.5,33.35l0.04,0.51l-0.08,0.03c-0.15-0.48-0.2-0.24-0.23,0.11c0.06,0.13,0.18,0.15,0.37,0.07
					c0.15,0.15,0.2,0.05,0.23-0.08C57.88,33.57,57.76,33.38,57.5,33.35z"/>
				<path class="st9" d="M55.88,34.29c-0.16-0.02-0.09-0.08,0.1-0.16c0.17,0.08,0.18,0.21,0.02,0.4c-0.35,0.17-0.52,0.17-0.57,0.07
					c0.05-0.13,0.19-0.13,0.33-0.15L55.88,34.29z"/>
				<path class="st9" d="M54.85,35.36c-0.09-0.07-0.25,0-0.45,0.16c-0.18,0.09-0.14,0.16-0.03,0.23c0.14,0.15,0.33,0.15,0.56,0
					C55.04,35.55,55.04,35.41,54.85,35.36z"/>
				<path class="st9" d="M58.93,33.26c-0.12-0.11-0.2,0-0.26,0.21c-0.01,0.2,0.05,0.24,0.18,0.13l0.07-0.09
					c0,0.07,0.06,0.02,0.2-0.16C59.25,32.87,59.2,32.81,58.93,33.26z"/>
				<path class="st9" d="M54.85,33.93l0.98-0.34c-0.08,0.16-0.2,0.31-0.53,0.37C55.05,34.02,54.94,33.99,54.85,33.93z"/>
				<g>
					<path class="st10" d="M48.74,31.9c-0.41,0.34-0.5,0.77-0.53,0.93"/>
					<path class="st11" d="M48.75,31.9c-0.05,0.08-0.1,0.16-0.16,0.22c-0.07,0.06-0.14,0.12-0.16,0.21
						c-0.06,0.17-0.11,0.33-0.21,0.5l-0.01,0c-0.02-0.19,0.04-0.38,0.16-0.52c0.07-0.07,0.1-0.15,0.15-0.24
						C48.57,31.98,48.65,31.93,48.75,31.9L48.75,31.9z"/>
				</g>
				<g>
					<path class="st10" d="M47.57,33.84c0.04,0.21-0.13,0.45-0.39,0.54"/>
					<path class="st11" d="M47.57,33.84c0.04,0.05,0.06,0.13,0.02,0.19c-0.04,0.06-0.08,0.1-0.1,0.16
						c-0.05,0.12-0.18,0.21-0.31,0.19l0-0.01c0.09-0.1,0.17-0.15,0.27-0.22c0.05-0.03,0.07-0.09,0.07-0.15
						c0-0.06,0.03-0.1,0.05-0.16L47.57,33.84z"/>
				</g>
				<g>
					<path class="st10" d="M49.06,32.61c-0.37,0.24-0.45,0.56-0.55,0.7"/>
					<path class="st11" d="M49.06,32.62c-0.05,0.07-0.09,0.12-0.15,0.16c-0.06,0.04-0.13,0.08-0.15,0.16
						c-0.06,0.14-0.11,0.27-0.24,0.38l-0.01-0.01c0.02-0.15,0.07-0.3,0.2-0.41c0.06-0.05,0.1-0.12,0.14-0.18
						C48.9,32.65,48.97,32.62,49.06,32.62L49.06,32.62z"/>
				</g>
				<g>
					<path class="st10" d="M48.88,32.59c-0.15,0.24-0.13,0.49-0.06,0.55"/>
					<path class="st11" d="M48.89,32.6c0,0.06,0,0.1-0.03,0.14c-0.03,0.04-0.06,0.08-0.05,0.13c0.03,0.1,0.01,0.17,0.02,0.27
						l-0.01,0.01c-0.13-0.05-0.13-0.2-0.07-0.29c0.03-0.05,0.03-0.1,0.03-0.15C48.78,32.65,48.82,32.61,48.89,32.6L48.89,32.6z"/>
				</g>
				<g>
					<path class="st10" d="M48.36,36.14c-0.19-0.08-0.87,0.19-1.29,0.91"/>
					<path class="st11" d="M48.36,36.14c-0.14,0-0.25,0.07-0.38,0.11c-0.13,0.04-0.26,0.1-0.35,0.2c-0.19,0.2-0.36,0.4-0.56,0.6
						l-0.01-0.01c0.09-0.27,0.28-0.5,0.53-0.64c0.12-0.07,0.23-0.16,0.35-0.23c0.12-0.07,0.28-0.11,0.42-0.04L48.36,36.14z"/>
				</g>
				<g>
					<path class="st10" d="M48.14,36.08c0,0.04-0.3,0.12-0.59,0.57"/>
					<path class="st11" d="M48.15,36.08c-0.06,0.18-0.23,0.15-0.31,0.28c-0.07,0.12-0.15,0.22-0.28,0.3l-0.01-0.01
						c0.02-0.15,0.12-0.27,0.25-0.34c0.07-0.03,0.11-0.09,0.16-0.14c0.05-0.05,0.13-0.07,0.18-0.09L48.15,36.08z"/>
				</g>
				<g>
					<path class="st10" d="M50.31,32.62c0.39-0.15,0.83-0.15,0.81,0.19"/>
					<path class="st11" d="M50.31,32.61c0.07-0.06,0.14-0.1,0.23-0.11c0.09,0,0.17,0.01,0.26-0.01c0.09-0.02,0.18-0.01,0.27,0.05
						c0.09,0.06,0.11,0.19,0.07,0.26l-0.01,0c-0.05-0.17-0.16-0.2-0.32-0.25c-0.08-0.02-0.16,0-0.24,0.04
						c-0.08,0.03-0.15,0.03-0.24,0.03L50.31,32.61z"/>
				</g>
				<g>
					<path class="st10" d="M50.64,32.32c0.05,0.24,0.13,0.41,0.17,0.4"/>
					<path class="st11" d="M50.64,32.31c0.04,0.03,0.06,0.06,0.06,0.1c-0.01,0.04-0.01,0.08,0.02,0.11
						c0.07,0.05,0.07,0.12,0.09,0.18l0,0.01c-0.06,0.03-0.11-0.03-0.13-0.06c-0.02-0.04-0.03-0.07-0.02-0.12
						c0.01-0.04-0.02-0.07-0.04-0.11c-0.02-0.03-0.01-0.08,0.01-0.12L50.64,32.31z"/>
				</g>
				<g>
					<path class="st11" d="M51.15,32.4c-0.04,0.25-0.07,0.51-0.06,0.75c0.01,0.12,0.04,0.25,0.16,0.26c0.12,0,0.23-0.09,0.32-0.17
						c0.36-0.35,0.65-0.77,1-1.15l0.01,0.01c-0.25,0.45-0.55,0.88-0.97,1.19c-0.1,0.08-0.22,0.14-0.36,0.16
						c-0.16,0.01-0.23-0.18-0.24-0.3c-0.03-0.27,0.04-0.53,0.14-0.76L51.15,32.4z"/>
				</g>
				<g>
					<path class="st10" d="M52.3,32.39c-0.35,0.23-0.71,0.74-0.93,1.08"/>
					<path class="st11" d="M52.3,32.4c-0.08,0.09-0.15,0.18-0.25,0.26c-0.09,0.07-0.19,0.15-0.25,0.26
						c-0.12,0.21-0.26,0.4-0.44,0.57l-0.01-0.01c0.08-0.24,0.22-0.44,0.4-0.6c0.09-0.08,0.16-0.18,0.23-0.28
						C52.07,32.5,52.17,32.43,52.3,32.4L52.3,32.4z"/>
				</g>
				<g>
					<path class="st10" d="M51.59,30.91c0.79-0.09,1.24,0.43,1.11,1.01"/>
					<path class="st11" d="M51.59,30.9c0.14-0.05,0.3-0.06,0.45-0.02c0.15,0.05,0.28,0.13,0.41,0.2c0.28,0.16,0.39,0.55,0.25,0.83
						l-0.01,0c0-0.3-0.08-0.56-0.28-0.78c-0.1-0.11-0.25-0.15-0.39-0.17l-0.43-0.06L51.59,30.9z"/>
				</g>
				<g>
					<path class="st10" d="M48.95,34.7c0.09,0.44,0.31,0.74,0.5,0.68"/>
					<path class="st11" d="M48.95,34.7c0.05,0.07,0.08,0.13,0.09,0.21c0.01,0.07,0.02,0.15,0.08,0.21c0.11,0.1,0.17,0.23,0.32,0.25
						l0,0.01c-0.07,0.06-0.19,0.03-0.25-0.03c-0.06-0.06-0.11-0.13-0.13-0.21C49.05,35.06,49,35,48.96,34.93
						c-0.04-0.07-0.04-0.15-0.02-0.23L48.95,34.7z"/>
				</g>
				<g>
					<path class="st10" d="M49.44,35.37c0.02,0.54,0.2,0.84,0.4,0.71"/>
					<path class="st11" d="M49.45,35.37c0.04,0.08,0.06,0.15,0.06,0.23c0,0.08-0.01,0.16,0.04,0.23c0.1,0.13,0.13,0.27,0.29,0.24
						l0.01,0.01c-0.04,0.08-0.2,0.09-0.26,0.01c-0.06-0.07-0.1-0.15-0.1-0.24c0-0.08-0.04-0.16-0.07-0.24
						c-0.03-0.08-0.01-0.16,0.02-0.24L49.45,35.37z"/>
				</g>
				<g>
					<path class="st10" d="M49.84,36.08c-0.1,0.61,0.21,0.96,0.47,0.87"/>
					<path class="st11" d="M49.85,36.08c0.06,0.19-0.04,0.39,0.06,0.56c0.11,0.15,0.2,0.3,0.4,0.31l0,0.01
						c-0.08,0.07-0.23,0.05-0.31-0.03c-0.08-0.07-0.14-0.17-0.15-0.27c-0.01-0.1-0.05-0.19-0.07-0.29c-0.02-0.1,0.01-0.2,0.06-0.29
						L49.85,36.08z"/>
				</g>
				<g>
					<path class="st10" d="M50.38,37.32c-0.26-0.13-0.9-0.04-1-0.43"/>
					<path class="st11" d="M50.38,37.32c-0.1-0.01-0.19,0-0.28-0.03c-0.09-0.03-0.18-0.06-0.28-0.06c-0.18,0.01-0.45-0.11-0.44-0.35
						l0.01,0c0.11,0.17,0.26,0.21,0.44,0.29c0.09,0.04,0.19,0.03,0.28,0.03c0.1,0,0.2,0.04,0.27,0.11L50.38,37.32z"/>
				</g>
				<g>
					<path class="st10" d="M49.39,36.89c-0.38-0.06-0.43-0.43-0.28-0.64"/>
					<path class="st11" d="M49.39,36.89c-0.07,0.02-0.16,0.01-0.22-0.04c-0.06-0.06-0.09-0.13-0.14-0.19
						c-0.1-0.13-0.07-0.33,0.07-0.42l0.01,0.01c-0.02,0.15-0.03,0.25-0.02,0.39c0,0.07,0.07,0.12,0.13,0.14
						c0.06,0.02,0.11,0.06,0.17,0.1L49.39,36.89z"/>
				</g>
				<g>
					<path class="st10" d="M49.1,36.24c-0.54-0.44-0.23-1.16-0.23-1.16"/>
					<path class="st11" d="M49.1,36.25c-0.1-0.04-0.2-0.12-0.24-0.22c-0.04-0.1-0.06-0.21-0.1-0.31c-0.07-0.21-0.04-0.45,0.1-0.63
						l0.01,0c-0.01,0.22-0.04,0.41-0.05,0.61C48.83,35.92,49.01,36.05,49.1,36.25L49.1,36.25z"/>
				</g>
				<g>
					<path class="st10" d="M51.95,34.32c-0.09,0.35-0.69,0.92-1.22,1.35"/>
					<path class="st11" d="M51.95,34.33c-0.01,0.16-0.09,0.31-0.2,0.42c-0.11,0.11-0.23,0.21-0.32,0.34
						c-0.19,0.25-0.43,0.45-0.7,0.6l-0.01-0.01c0.2-0.24,0.43-0.44,0.67-0.63c0.12-0.09,0.21-0.22,0.29-0.35
						c0.08-0.13,0.18-0.24,0.26-0.37L51.95,34.33z"/>
				</g>
				<g>
					<path class="st10" d="M51.46,34.83c-0.28,0.45-0.34,0.79-0.43,0.84"/>
					<path class="st11" d="M51.47,34.83c-0.01,0.08-0.04,0.16-0.08,0.22c-0.05,0.06-0.1,0.12-0.11,0.2
						c-0.01,0.08-0.04,0.15-0.07,0.23c-0.03,0.07-0.08,0.15-0.17,0.19l-0.01-0.01c0.05-0.14,0.08-0.3,0.18-0.43
						c0.05-0.06,0.07-0.14,0.09-0.22C51.33,34.94,51.39,34.88,51.47,34.83L51.47,34.83z"/>
				</g>
				<g>
					<path class="st10" d="M52.09,35.02c0.31,0.01,0.82,0.08,0.45,0.03"/>
					<path class="st11" d="M52.09,35.01c0.06-0.03,0.12-0.05,0.18-0.03c0.06,0.02,0.12,0.04,0.18,0.03c0.06-0.02,0.12-0.01,0.18,0
						l0.02,0c0.01,0.02-0.01-0.05,0.07,0.07c-0.08,0.09-0.08,0.02-0.08,0.04l-0.02-0.01c-0.03-0.01-0.06-0.02-0.08-0.05l0-0.01
						c0.03-0.02,0.06-0.02,0.09-0.02l0.02,0c0.01,0.02,0.03-0.05-0.04,0.04c0.06,0.12,0.02,0.04,0.02,0.06l-0.02,0
						c-0.06-0.01-0.12-0.02-0.17-0.04c-0.06-0.03-0.12-0.01-0.18,0c-0.06,0.01-0.12-0.01-0.18-0.05L52.09,35.01z"/>
				</g>
				<g>
					<path class="st10" d="M52.4,34.92c0.12-0.1-0.4,0.48-0.28,0.27"/>
					<path class="st11" d="M52.39,34.92l0.01-0.02c0.01,0-0.01-0.01,0.02,0c0.03,0.04,0.01,0.03,0.02,0.03l0,0.01l-0.01,0.04
						c-0.01,0.02-0.02,0.05-0.04,0.05c-0.04,0.02-0.08,0.04-0.1,0.09c-0.01,0.05-0.04,0.08-0.08,0.11
						c-0.01,0.02-0.03,0.03-0.07,0.04c0.01,0-0.04,0.02-0.07-0.02c0-0.01,0-0.04,0.01-0.04c0.01-0.01,0.02-0.02,0.04-0.02l0.01,0.01
						c-0.01,0.03,0.05,0.06-0.03,0c0-0.01,0.01-0.04,0.03-0.05c0.03-0.03,0.06-0.06,0.11-0.07c0.05-0.02,0.06-0.06,0.08-0.1
						C52.33,34.94,52.39,34.88,52.39,34.92L52.39,34.92z"/>
				</g>
				<g>
					<path class="st10" d="M47.64,34.78c0.02,0.1-0.08,0.23-0.23,0.28"/>
					<path class="st11" d="M47.64,34.77c0.04,0.03,0.05,0.09,0.02,0.12c-0.03,0.03-0.07,0.04-0.07,0.09
						c-0.02,0.08-0.1,0.13-0.19,0.09l0-0.01c0.04-0.08,0.08-0.1,0.15-0.12c0.04-0.01,0.04-0.05,0.04-0.08
						c0-0.03,0.02-0.04,0.05-0.08L47.64,34.77z"/>
				</g>
				<g>
					<path class="st10" d="M47.37,34.87c0.02,0.1,0.16,0.15,0.31,0.09"/>
					<path class="st11" d="M47.37,34.87c0.04,0.02,0.06,0.02,0.07,0.04c0.01,0.03,0.03,0.06,0.06,0.04
						c0.06-0.03,0.09-0.03,0.17,0.01l0,0.01c-0.04,0.08-0.13,0.09-0.19,0.04c-0.03-0.03-0.06-0.02-0.1-0.03
						c-0.04-0.01-0.05-0.07-0.03-0.11L47.37,34.87z"/>
				</g>
				<path d="M54,31.86l0.15-0.05c0.13,0.49,0.21,0.98-0.1,1.5c0.03,0.23-0.04,0.47-0.27,0.71c-0.16,0.63-0.66,1.27-1.32,1.9
					l0.15-0.35l-0.29,0.5l0.53,0.18l0.22-0.08l0.04,0.09l0.66-0.06c0.11-0.11,0.3-0.14,0.54-0.14l0.91-0.17l1.23-0.43l1.09-0.82
					l1.24-0.94c0.08-0.22,0.19-0.4,0.33-0.52l-0.16,0.42l0.36-0.41l0.1-0.05c0.15-0.02-0.16,0.65-0.34,0.63l0.02,0.12l0.39-0.94
					c0.13,0.31,0.21,0.65-0.7,1.57c0.05,0.32-0.59,0.91-1.42,1.57l0.45,0.06c-0.12,0.31-0.61,0.69-1.18,1.08l-0.98,0.84
					c0.16,0.08,0.54-0.16,1.16-0.78c0.57-0.43,0.99-0.64,1.11-0.39c0.07,0.11,0.04,0.29-0.04,0.49c-0.02-0.52-0.22-0.67-0.87,0.02
					c-0.35,0.41-0.78,0.76-1.29,1.05c-0.85,0.2-0.64-0.21-0.3-0.7l1.19-0.97c-2.53,1.22-4.41,1.91-5.04,1.61l0.25-0.23
					c-1.69,0.33-3.78,0.24-3.47-0.07c-0.09,0.06-0.22,0.04-0.36-0.01c0.19-0.03,0.37-0.06,0.38-0.14l0.21-0.1l-0.75,0.01l0.26-0.08
					c0.39,0.03,0.79,0,1.21-0.09l-0.17,0.25c0.54-0.14,1.16-0.4,1.79-0.68l-0.17-0.02c-0.47,0.25-0.81,0.4-0.98,0.37
					c0,0,0.37-0.31,0.17-0.16c-0.23,0.17,1.72-0.76,2.41-1.68c0.52-0.57,0.94-1.12,1.2-1.63C53.92,33.32,54.07,32.56,54,31.86z"/>
				<path class="st10" d="M55.9,35.87c0.82-0.46,1.56-0.94,2.24-1.45c-0.36,0.42-0.9,0.83-1.61,1.23
					C56.32,35.84,56.11,35.87,55.9,35.87z"/>
				<path class="st10" d="M54.74,36.34l-0.17,0l0.3-0.18l0.06-0.11c0,0,0.26-0.32,0.3-0.13s0.04,0.19,0.04,0.19
					C55.09,36.22,54.92,36.3,54.74,36.34z"/>
				<path class="st10" d="M53.81,36.87l-0.77,0.23l-0.3-0.06c-0.32-0.01-1.06,0.32-1.76,0.61l1.35-0.32l0.42-0.1L53.81,36.87z"/>
				<path class="st10" d="M50.05,37.97l-0.65,0.1c0.39,0.07,0.82,0.05,1.26-0.03L50.05,37.97z"/>
				<polygon class="st10" points="51.81,37.16 51.33,37.32 51.67,37.15 				"/>
				<path class="st10" d="M52.7,36.53c-0.15,0.17-0.15,0.17-0.15,0.17c0.21,0,0.43-0.07,0.66-0.17
					C53.21,36.54,52.84,36.36,52.7,36.53z"/>
				<polygon class="st10" points="52.97,36.75 53.26,36.79 52.88,36.86 				"/>
				<path class="st10" d="M52.37,36.44l-0.02-0.11l0.5-0.06C52.69,36.39,52.53,36.47,52.37,36.44z"/>
				<polygon class="st10" points="58.93,32.29 59.12,32.23 58.9,32.13 				"/>
				<polygon class="st10" points="58.21,31.63 58.06,31.59 58.07,31.68 				"/>
				<polygon class="st10" points="54.76,35.66 54.65,35.52 54.59,35.66 				"/>
			</g>
		</g>
	</g>
	<text transform="matrix(0.7844 -0.7026 0.6672 0.7449 24.586 42.1302)" class="st5 st15">Crazy</text>
</g>
</svg>
